#!OML:ASF H:\ManfredETheater\Project 1\Capture day 1\Session 1\subject.ASF
:FULLY-SPECIFIED
:DEGREES
61
root 4.88246 15.5855 -5.62197 4.78263 -16.2727 18.9888
lowerback 20.1968 1.76993 -9.4607
upperback 3.09673 -0.132767 -4.15014
thorax -7.92443 0.127238 0.883067
lowerneck -16.1057 -1.6651 -3.54262
upperneck 7.39207 -1.08468 -3.52303
head 4.83346 -0.88734 -0.630445
rclavicle 2.62396e-014 3.18055e-015
rhumerus -35.0754 3.36357 -71.4337
rradius 85.5002
rwrist -12.7893
rhand -32.3034 7.20453
rfingers 7.12502
rthumb -5.5417 -22.703
lclavicle 2.62396e-014 3.18055e-015
lhumerus -45.004 18.3061 55.7824
lradius 63.7176
lwrist 16.5956
lhand -24.7223 -6.23914
lfingers 7.12502
lthumb 1.77979 23.7332
rfemur -48.7741 -9.98518 20.6214
rtibia 78.2183
rfoot -24.4771 -15.4417
rtoes -25.8974
lfemur -21.259 -10.9202 -21.8539
ltibia 78.1132
lfoot 6.58202 -9.0316
ltoes 17.2703
62
root 4.74785 15.6063 -5.12366 5.23391 -17.8299 18.0423
lowerback 19.8909 2.07755 -8.80866
upperback 2.83856 0.463756 -3.73422
thorax -8.09292 0.410428 0.813134
lowerneck -16.1754 -1.57205 -3.18557
upperneck 7.54691 -0.967814 -4.04381
head 4.89051 -0.860181 -0.842126
rclavicle 1.03368e-014 -4.53229e-014
rhumerus -31.5618 4.37028 -71.4569
rradius 86.2894
rwrist -12.4244
rhand -32.1767 7.12912
rfingers 7.12502
rthumb -5.41931 -22.7816
lclavicle 1.03368e-014 -4.53229e-014
lhumerus -47.468 19.2378 53.2749
lradius 60.7456
lwrist 15.1234
lhand -24.4251 -6.23741
lfingers 7.12502
lthumb 2.06682 23.7323
rfemur -46.2883 -9.60684 21.2934
rtibia 77.4591
rfoot -26.3052 -15.049
rtoes -27.6602
lfemur -23.9968 -9.69605 -21.1014
ltibia 81.0654
lfoot 5.25088 -7.27842
ltoes 20.4706
63
root 4.60786 15.6233 -4.62962 5.76543 -19.3608 17.0465
lowerback 19.6382 2.38198 -8.18665
upperback 2.56468 1.03847 -3.3567
thorax -8.29975 0.683688 0.72138
lowerneck -16.281 -1.46854 -2.80537
upperneck 7.74608 -0.84482 -4.49899
head 4.96834 -0.826435 -1.03741
rclavicle -3.29983e-014 -8.34896e-014
rhumerus -28.1421 5.35399 -71.6868
rradius 87.1292
rwrist -11.9547
rhand -31.9722 7.12712
rfingers 7.12502
rthumb -5.22189 -22.7885
lclavicle -3.29983e-014 -8.34896e-014
lhumerus -50.0732 19.6146 50.8811
lradius 58.4193
lwrist 13.4507
lhand -24.1104 -6.31164
lfingers 7.12502
lthumb 2.37072 23.6549
rfemur -43.8002 -9.38154 21.9716
rtibia 76.5219
rfoot -27.9918 -14.526
rtoes -29.0902
lfemur -26.9676 -8.37966 -20.2663
ltibia 83.9041
lfoot 3.7229 -6.04503
ltoes 22.8902
64
root 4.46181 15.6364 -4.13922 6.36411 -20.8373 16.0049
lowerback 19.4337 2.6851 -7.59043
upperback 2.28492 1.59756 -3.01768
thorax -8.53195 0.948693 0.603627
lowerneck -16.4127 -1.36598 -2.42119
upperneck 7.97346 -0.728285 -4.89023
head 5.06022 -0.792411 -1.21465
rclavicle -4.37326e-015 -4.85035e-014
rhumerus -24.9246 6.29986 -72.1174
rradius 88.058
rwrist -11.4396
rhand -31.6964 7.2102
rfingers 7.12502
rthumb -4.95559 -22.7118
lclavicle -4.37326e-015 -4.85035e-014
lhumerus -52.7069 19.338 48.7948
lradius 56.7863
lwrist 11.9153
lhand -23.7976 -6.43118
lfingers 7.12502
lthumb 2.67287 23.5318
rfemur -41.3243 -9.33817 22.6471
rtibia 75.4559
rfoot -29.5022 -13.855
rtoes -30.2255
lfemur -30.1303 -7.03039 -19.3773
ltibia 86.5718
lfoot 2.02757 -5.42866
ltoes 24.3321
65
root 4.30875 15.6463 -3.65108 7.02455 -22.2338 14.9027
lowerback 19.2613 2.98822 -7.00511
upperback 2.01413 2.15058 -2.70562
thorax -8.76501 1.20852 0.46229
lowerneck -16.5801 -1.27325 -2.05458
upperneck 8.21653 -0.625278 -5.22512
head 5.1636 -0.76254 -1.37343
rclavicle 2.22639e-014 1.66979e-014
rhumerus -22.009 7.20623 -72.7217
rradius 89.1216
rwrist -10.9617
rhand -31.3635 7.39128
rfingers 7.12502
rthumb -4.6341 -22.538
lclavicle 2.22639e-014 1.66979e-014
lhumerus -55.2505 18.3934 47.2073
lradius 55.8503
lwrist 10.8538
lhand -23.4889 -6.58514
lfingers 7.12502
lthumb 2.97099 23.3739
rfemur -38.8513 -9.48215 23.3139
rtibia 74.2801
rfoot -30.7889 -13.0197
rtoes -31.2036
lfemur -33.4432 -5.68165 -18.44
ltibia 89.0105
lfoot 0.232695 -5.46329
ltoes 24.7333
66
root 4.14742 15.6544 -3.16366 7.75483 -23.5255 13.7218
lowerback 19.092 3.29122 -6.41854
upperback 1.76279 2.70503 -2.40505
thorax -8.97178 1.46596 0.307186
lowerneck -16.7815 -1.19908 -1.71697
upperneck 8.4526 -0.54512 -5.51766
head 5.27074 -0.742178 -1.51694
rclavicle -7.95139e-016 1.90833e-014
rhumerus -19.4666 8.08156 -73.4588
rradius 90.3403
rwrist -10.5766
rhand -31.0024 7.67787
rfingers 7.12502
rthumb -4.28549 -22.2588
lclavicle -7.95139e-016 1.90833e-014
lhumerus -57.6348 16.8408 46.253
lradius 55.5969
lwrist 10.4881
lhand -23.1726 -6.76375
lfingers 7.12502
lthumb 3.27646 23.1908
rfemur -36.3631 -9.78513 23.9587
rtibia 72.9932
rfoot -31.8309 -11.9468
rtoes -32.0592
lfemur -36.8736 -4.34777 -17.4563
ltibia 91.1612
lfoot -1.60676 -6.09355
ltoes 24.3415
67
root 3.97639 15.6633 -2.67519 8.56943 -24.6737 12.4464
lowerback 18.8952 3.58824 -5.81723
upperback 1.53682 3.26012 -2.09924
thorax -9.12865 1.7205 0.15172
lowerneck -17.0156 -1.14809 -1.41783
upperneck 8.66833 -0.491622 -5.78009
head 5.3769 -0.734087 -1.64775
rclavicle 7.35503e-014 5.80451e-014
rhumerus -17.3364 8.94649 -74.267
rradius 91.7154
rwrist -10.3147
rhand -30.6181 8.05246
rfingers 7.12502
rthumb -3.91431 -21.8913
lclavicle 7.35503e-014 5.80451e-014
lhumerus -59.8498 14.8021 45.9789
lradius 55.9832
lwrist 10.8597
lhand -22.8182 -6.91773
lfingers 7.12502
lthumb 3.61869 23.0313
rfemur -33.8383 -10.2113 24.5727
rtibia 71.5661
rfoot -32.5943 -10.5948
rtoes -32.8807
lfemur -40.4 -3.03065 -16.4385
ltibia 92.9585
lfoot -3.3852 -7.21107
ltoes 23.4006
68
root 3.79407 15.6758 -2.18404 9.4757 -25.6346 11.073
lowerback 18.6474 3.87189 -5.19685
upperback 1.33645 3.80874 -1.77463
thorax -9.22246 1.96954 0.012766
lowerneck -17.2679 -1.12848 -1.16078
upperneck 8.85229 -0.475484 -6.01894
head 5.47556 -0.743647 -1.76812
rclavicle -3.18055e-014 1.03368e-014
rhumerus -15.6221 9.82628 -75.0792
rradius 93.2152
rwrist -10.1746
rhand -30.2363 8.49207
rfingers 7.12502
rthumb -3.5457 -21.4582
lclavicle -3.18055e-014 1.03368e-014
lhumerus -61.9174 12.4513 46.3341
lradius 56.8976
lwrist 11.787
lhand -22.416 -7.0283
lfingers 7.12502
lthumb 4.00703 22.9138
rfemur -31.2521 -10.7169 25.1469
rtibia 69.9603
rfoot -33.0439 -8.92001
rtoes -33.6878
lfemur -43.9834 -1.75578 -15.4171
ltibia 94.3412
lfoot -4.9795 -8.69262
ltoes 22.1071
69
root 3.59918 15.6938 -1.68858 10.4752 -26.3475 9.6046
lowerback 18.3255 4.12772 -4.54894
upperback 1.16106 4.33426 -1.41822
thorax -9.24088 2.20602 -0.092864
lowerneck -17.5204 -1.14397 -0.951846
upperneck 9.00082 -0.50129 -6.23261
head 5.56219 -0.772805 -1.8768
rclavicle 3.33958e-014 -1.74931e-014
rhumerus -14.2955 10.7409 -75.8283
rradius 94.7759
rwrist -10.1042
rhand -29.9 8.96308
rfingers 7.12502
rthumb -3.22093 -20.9923
lclavicle 3.33958e-014 -1.74931e-014
lhumerus -63.8816 9.95869 47.223
lradius 58.2297
lwrist 12.9808
lhand -21.9578 -7.08438
lfingers 7.12502
lthumb 4.44953 22.8489
rfemur -28.5847 -11.2705 25.689
rtibia 68.138
rfoot -33.1478 -6.88356
rtoes -34.4249
lfemur -47.5929 -0.556589 -14.4274
ltibia 95.2638
lfoot -6.3066 -10.3947
ltoes 20.7873
70
root 3.39186 15.7171 -1.18771 11.5503 -26.7545 8.06749
lowerback 17.921 4.33902 -3.86927
upperback 1.00277 4.81308 -1.02641
thorax -9.18751 2.41972 -0.155839
lowerneck -17.7453 -1.202 -0.800347
upperneck 9.12145 -0.579634 -6.40109
head 5.63405 -0.825137 -1.96671
rclavicle 9.78021e-014 -4.29375e-014
rhumerus -13.3263 11.7008 -76.4674
rradius 96.3242
rwrist -10.0458
rhand -29.6091 9.4753
rfingers 7.12502
rthumb -2.93991 -20.4842
lclavicle 9.78021e-014 -4.29375e-014
lhumerus -65.7831 7.45899 48.5418
lradius 59.8352
lwrist 14.0933
lhand -21.5036 -7.11372
lfingers 7.12502
lthumb 4.88813 22.8099
rfemur -25.8348 -11.8634 26.2067
rtibia 66.0729
rfoot -32.8452 -4.48178
rtoes -35.0467
lfemur -51.1997 0.503788 -13.5323
ltibia 95.6997
lfoot -7.33908 -12.1559
ltoes 19.7222
71
root 3.173 15.7445 -0.680782 12.6626 -26.8188 6.49674
lowerback 17.4423 4.49296 -3.15577
upperback 0.857465 5.22422 -0.602099
thorax -9.07127 2.60112 -0.175245
lowerneck -17.9244 -1.3071 -0.711187
upperneck 9.22817 -0.718004 -6.50036
head 5.69212 -0.90242 -2.02999
rclavicle 0 1.59028e-015
rhumerus -12.6803 12.6915 -76.9843
rradius 97.7874
rwrist -9.90248
rhand -29.3541 10.0201
rfingers 7.12502
rthumb -2.69373 -19.9426
lclavicle 0 1.59028e-015
lhumerus -67.6354 5.07288 50.1782
lradius 61.5672
lwrist 14.8541
lhand -21.0669 -7.14487
lfingers 7.12502
lthumb 5.30979 22.7686
rfemur -23.0002 -12.4803 26.711
rtibia 63.753
rfoot -32.0551 -1.7031
rtoes -35.4432
lfemur -54.7622 1.3817 -12.7951
ltibia 95.6383
lfoot -8.0426 -13.8391
ltoes 19.0905
72
root 2.94358 15.7755 -0.167533 13.7545 -26.5257 4.93195
lowerback 16.9231 4.58005 -2.41148
upperback 0.722706 5.54901 -0.150901
thorax -8.91396 2.74144 -0.153984
lowerneck -18.0535 -1.45706 -0.685184
upperneck 9.34355 -0.914718 -6.50827
head 5.74304 -1.00235 -2.05939
rclavicle 5.56597e-015 -2.06736e-014
rhumerus -12.3331 13.6844 -77.3992
rradius 99.0965
rwrist -9.57417
rhand -29.112 10.5967
rfingers 7.12502
rthumb -2.45992 -19.3688
lclavicle 5.56597e-015 -2.06736e-014
lhumerus -69.4425 2.88198 52.0412
lradius 63.3145
lwrist 15.1404
lhand -20.6591 -7.22568
lfingers 7.12502
lthumb 5.70344 22.6776
rfemur -20.0642 -13.1076 27.2071
rtibia 61.1711
rfoot -30.6574 1.50204
rtoes -35.3528
lfemur -58.2037 2.03668 -12.2776
ltibia 95.0723
lfoot -8.42161 -15.3184
ltoes 18.9596
73
root 2.70457 15.8093 0.352213 14.7636 -25.887 3.4156
lowerback 16.3983 4.59584 -1.64835
upperback 0.601935 5.77479 0.317082
thorax -8.73241 2.83455 -0.0973508
lowerneck -18.1561 -1.64587 -0.712232
upperneck 9.49934 -1.16306 -6.41428
head 5.80126 -1.12133 -2.05319
rclavicle -2.74323e-014 -2.22639e-014
rhumerus -12.2741 14.6417 -77.7594
rradius 100.203
rwrist -8.99344
rhand -28.8664 11.1803
rfingers 7.12502
rthumb -2.22266 -18.7878
lclavicle -2.74323e-014 -2.22639e-014
lhumerus -71.177 0.945351 54.0545
lradius 64.9886
lwrist 15.0092
lhand -20.2965 -7.39864
lfingers 7.12502
lthumb 6.05358 22.4949
rfemur -17.0162 -13.707 27.6994
rtibia 58.3239
rfoot -28.463 5.07384
rtoes -34.655
lfemur -61.4333 2.45329 -12.0325
ltibia 94.0057
lfoot -8.47009 -16.4986
ltoes 19.4669
74
root 2.45737 15.8451 0.877778 15.6332 -24.9484 1.98607
lowerback 15.9114 4.54385 -0.886392
upperback 0.500102 5.89936 0.78823
thorax -8.54764 2.87928 -0.0137086
lowerneck -18.2487 -1.8644 -0.785434
upperneck 9.70458 -1.45261 -6.21266
head 5.87344 -1.25377 -2.01005
rclavicle -5.28767e-014 1.66979e-014
rhumerus -12.4989 15.5203 -78.1262
rradius 101.063
rwrist -8.12431
rhand -28.6249 11.751
rfingers 7.12502
rthumb -1.98942 -18.2195
lclavicle -5.28767e-014 1.66979e-014
lhumerus -72.805 -0.69719 56.1482
lradius 66.5595
lwrist 14.6404
lhand -19.9801 -7.67705
lfingers 7.12502
lthumb 6.359 22.2075
rfemur -13.8479 -14.2024 28.1826
rtibia 55.2151
rfoot -25.2035 8.94741
rtoes -33.0993
lfemur -64.349 2.64637 -12.1066
ltibia 92.4543
lfoot -8.22243 -17.3239
ltoes 20.5977
75
root 2.20329 15.8818 1.40862 16.3284 -23.7881 0.659681
lowerback 15.4924 4.43697 -0.14792
upperback 0.426324 5.93529 1.25156
thorax -8.36953 2.88179 0.0907121
lowerneck -18.3591 -2.09809 -0.891879
upperneck 9.96119 -1.76512 -5.91562
head 5.96599 -1.39141 -1.93471
rclavicle 3.57812e-014 -2.54444e-014
rhumerus -13.004 16.2795 -78.5507
rradius 101.66
rwrist -7.03182
rhand -28.3842 12.2741
rfingers 7.12502
rthumb -1.75693 -17.6984
lclavicle 3.57812e-014 -2.54444e-014
lhumerus -74.2805 -2.02834 58.2659
lradius 68.0156
lwrist 14.2684
lhand -19.7193 -8.03461
lfingers 7.12502
lthumb 6.61077 21.8422
rfemur -10.5766 -14.4946 28.6671
rtibia 51.864
rfoot -20.621 12.7586
rtoes -30.8182
lfemur -66.8518 2.67233 -12.5285
ltibia 90.4466
lfoot -7.72488 -17.7705
ltoes 22.2636
